<mxfile host="app.diagrams.net" agent="Mozilla/5.0 (Windows NT 10.0; Win64; x64) AppleWebKit/537.36 (KHTML, like Gecko) Chrome/129.0.0.0 Safari/537.36 Edg/129.0.0.0" version="24.7.17">
  <diagram id="C5RBs43oDa-KdzZeNtuy" name="Page-1">
    <mxGraphModel dx="873" dy="484" grid="1" gridSize="10" guides="1" tooltips="1" connect="1" arrows="1" fold="1" page="1" pageScale="1" pageWidth="827" pageHeight="1169" math="0" shadow="0">
      <root>
        <mxCell id="WIyWlLk6GJQsqaUBKTNV-0" />
        <mxCell id="WIyWlLk6GJQsqaUBKTNV-1" parent="WIyWlLk6GJQsqaUBKTNV-0" />
        <mxCell id="UYYSh1KXgtL_ypq-Vdds-6" style="edgeStyle=orthogonalEdgeStyle;rounded=0;orthogonalLoop=1;jettySize=auto;html=1;" edge="1" parent="WIyWlLk6GJQsqaUBKTNV-1" source="WIyWlLk6GJQsqaUBKTNV-3" target="UYYSh1KXgtL_ypq-Vdds-5">
          <mxGeometry relative="1" as="geometry" />
        </mxCell>
        <mxCell id="UYYSh1KXgtL_ypq-Vdds-8" style="edgeStyle=orthogonalEdgeStyle;rounded=0;orthogonalLoop=1;jettySize=auto;html=1;" edge="1" parent="WIyWlLk6GJQsqaUBKTNV-1" source="WIyWlLk6GJQsqaUBKTNV-3" target="UYYSh1KXgtL_ypq-Vdds-7">
          <mxGeometry relative="1" as="geometry" />
        </mxCell>
        <mxCell id="WIyWlLk6GJQsqaUBKTNV-3" value="Echoes of the depth" style="rounded=1;whiteSpace=wrap;html=1;fontSize=12;glass=0;strokeWidth=1;shadow=0;" parent="WIyWlLk6GJQsqaUBKTNV-1" vertex="1">
          <mxGeometry x="353" y="20" width="120" height="40" as="geometry" />
        </mxCell>
        <mxCell id="UYYSh1KXgtL_ypq-Vdds-12" style="edgeStyle=orthogonalEdgeStyle;rounded=0;orthogonalLoop=1;jettySize=auto;html=1;" edge="1" parent="WIyWlLk6GJQsqaUBKTNV-1" source="UYYSh1KXgtL_ypq-Vdds-5" target="UYYSh1KXgtL_ypq-Vdds-11">
          <mxGeometry relative="1" as="geometry" />
        </mxCell>
        <mxCell id="UYYSh1KXgtL_ypq-Vdds-5" value="Single-Player" style="rounded=1;whiteSpace=wrap;html=1;fontSize=12;glass=0;strokeWidth=1;shadow=0;" vertex="1" parent="WIyWlLk6GJQsqaUBKTNV-1">
          <mxGeometry x="140" y="100" width="120" height="40" as="geometry" />
        </mxCell>
        <mxCell id="UYYSh1KXgtL_ypq-Vdds-7" value="Multiplayer" style="rounded=1;whiteSpace=wrap;html=1;fontSize=12;glass=0;strokeWidth=1;shadow=0;" vertex="1" parent="WIyWlLk6GJQsqaUBKTNV-1">
          <mxGeometry x="560" y="110" width="120" height="40" as="geometry" />
        </mxCell>
        <mxCell id="UYYSh1KXgtL_ypq-Vdds-17" style="edgeStyle=orthogonalEdgeStyle;rounded=0;orthogonalLoop=1;jettySize=auto;html=1;" edge="1" parent="WIyWlLk6GJQsqaUBKTNV-1" source="UYYSh1KXgtL_ypq-Vdds-11" target="UYYSh1KXgtL_ypq-Vdds-16">
          <mxGeometry relative="1" as="geometry" />
        </mxCell>
        <mxCell id="UYYSh1KXgtL_ypq-Vdds-11" value="You are a group of miners, you are being assigned to go to the Chernobyl adandoned mine for causes of restoration projects - Efforts to restore old mines to potentially reopen them for new extraction operations. You aren&#39;t being told much by the Scientists, you are being given the suits and masks you put them on, and you arrive to Chornobyl." style="rounded=1;whiteSpace=wrap;html=1;fontSize=12;glass=0;strokeWidth=1;shadow=0;" vertex="1" parent="WIyWlLk6GJQsqaUBKTNV-1">
          <mxGeometry x="70" y="160" width="260" height="120" as="geometry" />
        </mxCell>
        <mxCell id="UYYSh1KXgtL_ypq-Vdds-19" style="edgeStyle=orthogonalEdgeStyle;rounded=0;orthogonalLoop=1;jettySize=auto;html=1;" edge="1" parent="WIyWlLk6GJQsqaUBKTNV-1" source="UYYSh1KXgtL_ypq-Vdds-16" target="UYYSh1KXgtL_ypq-Vdds-18">
          <mxGeometry relative="1" as="geometry" />
        </mxCell>
        <mxCell id="UYYSh1KXgtL_ypq-Vdds-16" value="Upon arriving to the village near mines, you and miner NPC&#39;s meet locals and they tell you the legends about the mines: how innocent miners died do to the unfortunate events of Chornobyl disaster and ignorance of their commandment. During nuclear explosion of April 26th 1986, the mine was blocked by a boulder that fell from the ceiling of the mine, they were begging for help, but they were refused, due to insufficiency of resources to save them (Their lives weren&#39;t appreaciated by commandment enough, and weren&#39;t considered to be so important to save). Miners died there because of irradiation and lack of oxygen, food and water. Legends goes that the spirits of those miners are there and they are waiting to take their revenge, and on April 26th each year you can hear echoes of their screams for help coming from the depth of the mines..." style="rounded=1;whiteSpace=wrap;html=1;fontSize=12;glass=0;strokeWidth=1;shadow=0;" vertex="1" parent="WIyWlLk6GJQsqaUBKTNV-1">
          <mxGeometry x="70" y="320" width="260" height="320" as="geometry" />
        </mxCell>
        <mxCell id="UYYSh1KXgtL_ypq-Vdds-21" style="edgeStyle=orthogonalEdgeStyle;rounded=0;orthogonalLoop=1;jettySize=auto;html=1;" edge="1" parent="WIyWlLk6GJQsqaUBKTNV-1" source="UYYSh1KXgtL_ypq-Vdds-18" target="UYYSh1KXgtL_ypq-Vdds-20">
          <mxGeometry relative="1" as="geometry" />
        </mxCell>
        <mxCell id="UYYSh1KXgtL_ypq-Vdds-18" value="You consider that all of that is just bullshit and you tell locals that you don&#39;t believe in those stories, you believe in facts and science, and refuse to believe any paranormal activies to be possible. Locals offer you a place to stay overnight. You accept their offer, as you are already very tired and its getting late outside." style="rounded=1;whiteSpace=wrap;html=1;fontSize=12;glass=0;strokeWidth=1;shadow=0;" vertex="1" parent="WIyWlLk6GJQsqaUBKTNV-1">
          <mxGeometry x="70" y="680" width="260" height="110" as="geometry" />
        </mxCell>
        <mxCell id="UYYSh1KXgtL_ypq-Vdds-23" style="edgeStyle=orthogonalEdgeStyle;rounded=0;orthogonalLoop=1;jettySize=auto;html=1;" edge="1" parent="WIyWlLk6GJQsqaUBKTNV-1" source="UYYSh1KXgtL_ypq-Vdds-20" target="UYYSh1KXgtL_ypq-Vdds-22">
          <mxGeometry relative="1" as="geometry" />
        </mxCell>
        <mxCell id="UYYSh1KXgtL_ypq-Vdds-20" value="They give you a hot meal and join you at dining table, where they give you your last warning, which you ignore... *Black Screen* *Raining Sounds* *Thunderstorm hits and you wake up*" style="rounded=1;whiteSpace=wrap;html=1;fontSize=12;glass=0;strokeWidth=1;shadow=0;" vertex="1" parent="WIyWlLk6GJQsqaUBKTNV-1">
          <mxGeometry x="70" y="830" width="260" height="90" as="geometry" />
        </mxCell>
        <mxCell id="UYYSh1KXgtL_ypq-Vdds-25" style="edgeStyle=orthogonalEdgeStyle;rounded=0;orthogonalLoop=1;jettySize=auto;html=1;" edge="1" parent="WIyWlLk6GJQsqaUBKTNV-1" source="UYYSh1KXgtL_ypq-Vdds-22" target="UYYSh1KXgtL_ypq-Vdds-24">
          <mxGeometry relative="1" as="geometry" />
        </mxCell>
        <mxCell id="UYYSh1KXgtL_ypq-Vdds-22" value="Its early morning, so early that it is still dark, heavy rain is pouring outside, you wake up your co-miners and you head outside." style="rounded=1;whiteSpace=wrap;html=1;fontSize=12;glass=0;strokeWidth=1;shadow=0;" vertex="1" parent="WIyWlLk6GJQsqaUBKTNV-1">
          <mxGeometry x="70" y="960" width="260" height="90" as="geometry" />
        </mxCell>
        <mxCell id="UYYSh1KXgtL_ypq-Vdds-24" value="You follow the forest path to the mountain, where you find an abandoned mine that you were searching for&amp;nbsp;" style="rounded=1;whiteSpace=wrap;html=1;fontSize=12;glass=0;strokeWidth=1;shadow=0;" vertex="1" parent="WIyWlLk6GJQsqaUBKTNV-1">
          <mxGeometry x="70" y="1090" width="260" height="90" as="geometry" />
        </mxCell>
      </root>
    </mxGraphModel>
  </diagram>
</mxfile>
